<?xml version="1.0" encoding="UTF-8" standalone="no"?>
<!-- Created with Inkscape (http://www.inkscape.org/) -->

<svg
   width="10mm"
   height="10mm"
   viewBox="0 0 9.999999 10"
   version="1.1"
   id="svg1"
   sodipodi:docname="moy.svg"
   inkscape:version="1.4.2 (f4327f4, 2025-05-13)"
   xmlns:inkscape="http://www.inkscape.org/namespaces/inkscape"
   xmlns:sodipodi="http://sodipodi.sourceforge.net/DTD/sodipodi-0.dtd"
   xmlns="http://www.w3.org/2000/svg"
   xmlns:svg="http://www.w3.org/2000/svg">
  <sodipodi:namedview
     id="namedview1"
     pagecolor="#ffffff"
     bordercolor="#666666"
     borderopacity="1.0"
     inkscape:showpageshadow="2"
     inkscape:pageopacity="0.0"
     inkscape:pagecheckerboard="0"
     inkscape:deskcolor="#d1d1d1"
     inkscape:zoom="2.7166667"
     inkscape:cx="149.81595"
     inkscape:cy="136.74847"
     inkscape:window-width="1920"
     inkscape:window-height="1017"
     inkscape:window-x="-8"
     inkscape:window-y="-8"
     inkscape:window-maximized="1"
     inkscape:current-layer="svg1"
     inkscape:clip-to-page="true"
     inkscape:document-units="mm" />
  <defs
     id="defs1" />
  <g
     id="layer1"
     transform="matrix(0.12201701,0,0,0.12201701,0.15744956,0.17360619)">
    <g
       id="g2"
       transform="matrix(1.9047108,0,0,1.9047108,-34.938613,-51.501404)">
      <ellipse
         style="fill:#ffdd55;stroke:#f8c509;stroke-width:0.499999;stroke-linecap:square;stroke-opacity:1"
         id="path1"
         cx="39.296482"
         cy="55.59486"
         rx="16.105116"
         ry="12.046627" />
      <path
         style="fill:#179222;fill-opacity:1;stroke:#080505;stroke-width:0.264583px;stroke-linecap:butt;stroke-linejoin:miter;stroke-opacity:1"
         d="m 38.682737,43.405429 c -0.220778,-0.368378 -0.441555,-0.736754 -0.662333,-1.10513 -0.06623,-0.110514 -0.212017,-0.203392 -0.198699,-0.331539 0.08789,-0.845468 0.576036,0.303868 0.287632,-0.773221 -0.04444,-0.165939 -0.176622,-0.2947 -0.264933,-0.442051 -0.198699,-0.331539 -0.397399,-0.663077 -0.5961,-0.994619 -0.176621,-0.2947 -0.353244,-0.589403 -0.529865,-0.884103 -0.04416,-0.07368 -0.08831,-0.147352 -0.132467,-0.221027 -0.02208,-0.03684 -0.03365,-0.08254 -0.06623,-0.110511 -0.07289,-0.06254 -0.161984,-0.103199 -0.242981,-0.154794 -0.18407,-0.140031 -0.383376,-0.262019 -0.552192,-0.4201 -0.0627,-0.05871 -0.06977,-0.162318 -0.132467,-0.221027 -0.168818,-0.15808 -0.393097,-0.252235 -0.552192,-0.420096 -1.376608,-1.452465 0.689105,0.376514 -0.574147,-0.70736 -0.103074,-0.08843 -0.221195,-0.161878 -0.30921,-0.265306 -0.08351,-0.09812 -0.100922,-0.247642 -0.198701,-0.33154 -0.117521,-0.100829 -0.29424,-0.108348 -0.419726,-0.199072 C 33.251127,35.616441 33.064361,35.2928 32.787233,35.072296 32.636937,34.95271 32.447039,34.887777 32.301276,34.76271 32.135078,34.620111 32.010234,34.435322 31.859595,34.276378 31.737787,34.147853 31.593314,34.039982 31.484149,33.90056 c -0.1059,-0.135266 -0.12572,-0.341405 -0.264934,-0.442054 -0.147655,-0.106758 -0.358226,-0.07274 -0.530238,-0.13284 -0.146181,-0.05108 -0.284714,-0.123246 -0.419726,-0.199071 -0.167461,-0.09405 -0.323972,-0.206393 -0.485959,-0.309587 -0.08099,-0.05159 -0.166555,-0.09664 -0.24298,-0.154793 -0.516253,-0.392756 -0.108008,-0.188969 -0.795171,-0.574891 -0.270022,-0.151653 -0.566266,-0.252272 -0.839451,-0.398146 -0.25171,-0.134404 -0.471262,-0.342164 -0.728941,-0.464378 -0.16463,-0.07808 -0.36153,-0.06401 -0.530239,-0.13284 -0.08892,-0.03628 -0.161983,-0.103198 -0.242979,-0.154793 -0.242981,-0.154793 -0.474802,-0.328678 -0.728938,-0.464379 -0.05358,-0.02861 -0.121872,-0.01826 -0.176747,-0.04428 -0.08677,-0.04115 -0.15621,-0.11364 -0.24298,-0.154792 -0.05488,-0.02603 -0.121872,-0.01826 -0.176747,-0.04428 -0.173535,-0.08231 -0.312424,-0.227279 -0.485958,-0.309587 -0.05487,-0.02602 -0.130652,-0.0047 -0.176747,-0.04428 -0.06519,-0.05594 -0.08831,-0.147351 -0.132466,-0.221026 -0.08099,-0.05159 -0.161992,-0.103193 -0.24298,-0.154792 -0.08099,-0.05159 -0.156211,-0.113641 -0.24298,-0.154793 -0.109753,-0.05206 -0.243738,-0.03651 -0.353492,-0.08856 -0.08099,-0.05159 -0.161983,-0.103198 -0.24298,-0.154793 -0.02208,-0.03684 -0.03001,-0.08744 -0.06623,-0.110514 -0.05122,-0.03263 -0.11619,-0.04891 -0.176748,-0.04428 -0.04282,0.0033 -0.147349,0.08831 -0.11051,0.06623 0.746557,-0.44743 -0.631451,0.35416 0.729309,-0.286885 0.23311,-0.109817 0.425542,-0.297521 0.66308,-0.397401 0.07581,-0.03187 0.433003,0.154398 0.530238,0.132841 0.08386,-0.01859 0.138843,-0.107497 0.221027,-0.132467 0.18377,-0.05583 0.390748,0.01192 0.574519,-0.04391 0.08218,-0.02497 0.13717,-0.113874 0.221027,-0.132467 0.0593,-0.01314 0.11982,0.0231 0.176745,0.04428 0.20126,0.07487 0.384787,0.207297 0.596473,0.243351 0.189337,0.03225 0.384492,-0.07181 0.574518,-0.04391 0.420642,0.06177 0.830817,0.185106 1.237224,0.309959 0.148021,0.04547 0.266285,0.178259 0.419727,0.199072 0.319252,0.04331 0.384174,-0.185512 0.685031,-0.11014 0.09315,0.02333 0.14983,0.131453 0.242981,0.154792 0.150205,0.03763 0.310563,0.0015 0.464005,0.02233 0.120365,0.01633 0.23216,0.08272 0.353493,0.08856 0.191843,0.0092 0.382495,-0.03992 0.574519,-0.04391 0.154812,-0.0032 0.309158,0.02225 0.464004,0.02232 0.349023,1.76e-4 0.269186,-0.08499 0.640753,0.06661 0.08891,0.03627 0.156211,0.113641 0.242979,0.15479 0.05488,0.02603 0.130652,0.0047 0.176747,0.04428 0.06519,0.05594 0.0567,0.180566 0.132467,0.221027 0.160734,0.08582 0.359464,0.06931 0.530238,0.132839 0.176098,0.06551 0.674909,0.454511 0.795172,0.574893 0.187722,0.187909 -0.110512,0.06623 0.198699,0.331539 0.45498,0.390372 -0.130122,-0.467746 0.309214,0.265304 0.04416,0.07368 0.04658,0.220982 0.132467,0.221027 0.218987,1.09e-4 0.40008,-0.231151 0.618798,-0.220652 0.216012,0.01039 0.54382,0.656757 0.64038,0.81787 0.154544,0.257863 0.309088,0.515728 0.463632,0.773591 0.04415,0.07367 0.107488,0.138847 0.132467,0.221027 0.02793,0.09188 -0.0132,0.197893 0.02195,0.287261 0.06289,0.159862 0.176621,0.2947 0.264932,0.442052 0.02208,0.03684 0.05376,0.06942 0.06623,0.110511 0.367104,0.186565 0.0023,0.387007 0.04391,0.57452 0.0186,0.08386 0.08831,0.147349 0.132466,0.221025 0.02208,0.03684 0.06296,0.06769 0.06623,0.110514 0.0046,0.06056 -0.05743,0.117449 -0.04428,0.176746 0.0186,0.08386 0.125918,0.135384 0.132465,0.221025 0.0065,0.08565 -0.200154,0.04914 -0.221027,0.132467 -0.02214,0.08837 0.22084,0.243168 0.198701,0.331541 -0.02334,0.09316 -0.131457,0.14982 -0.154793,0.242977 -0.01067,0.04258 0.237232,0.350896 0.264934,0.442055 0.321329,1.05768 -0.07232,-0.137977 0.110138,0.68503 0.0093,0.04192 0.05179,0.07007 0.06623,0.110513 0.05947,0.166792 0.09495,0.341496 0.15442,0.508286 0.02885,0.08091 0.125928,0.135378 0.132467,0.221027 0.0046,0.06055 -0.04891,0.11619 -0.04428,0.176745 0.0065,0.08564 0.125919,0.135384 0.132466,0.221026 0.0046,0.06056 -0.04891,0.116189 -0.04428,0.176747 0.0033,0.04282 0.05693,0.06859 0.06623,0.110514 0.02078,0.09375 0.0067,0.192442 0.02195,0.287258 0.02156,0.13409 0.09471,0.262122 0.08819,0.397775 -0.0021,0.04289 -0.100075,0.02457 -0.110513,0.06623 -0.01044,0.04166 0.04415,0.07367 0.06623,0.110513 0.04415,0.07367 0.125919,0.135384 0.132465,0.221025 0.0033,0.04282 -0.100074,0.02457 -0.110511,0.06623 -0.01044,0.04166 0.04416,0.07368 0.06623,0.110514 0.04415,0.07367 0.08831,0.147352 0.132467,0.221027 0.08831,0.147349 0.176622,0.294701 0.264933,0.442052 0.04416,0.07368 0.08831,0.147349 0.132466,0.221025 0.02208,0.03684 0.05693,0.06859 0.06623,0.110513 0.02078,0.09375 0.0012,0.193501 0.02195,0.287261 0.01859,0.08385 0.113872,0.137168 0.132466,0.221024 0.02078,0.09375 -0.006,0.195376 0.02195,0.287261 0.02498,0.08218 0.125918,0.135384 0.132466,0.221026 0.0033,0.04283 -0.113785,0.02341 -0.110513,0.06623 0.0065,0.08565 0.107487,0.138847 0.132467,0.221027 0.02792,0.09188 0.01463,0.19151 0.02195,0.287258 0.0073,0.09575 0.02657,0.191338 0.02196,0.28726 -0.0029,0.06067 -0.02504,0.119143 -0.04428,0.176747 -0.106231,0.31816 -0.221276,0.63331 -0.331914,0.949965 z"
         id="path2" />
      <path
         style="fill:#179222;fill-opacity:1;stroke:#080505;stroke-width:0.264583px;stroke-linecap:butt;stroke-linejoin:miter;stroke-opacity:1"
         d="m 38.814005,43.651182 c 0.220778,-0.368378 0.441555,-0.736754 0.662333,-1.10513 0.06623,-0.110514 0.212017,-0.203392 0.198699,-0.331539 -0.08789,-0.845468 -0.576036,0.303868 -0.287632,-0.773221 0.04444,-0.165939 0.176622,-0.2947 0.264933,-0.442051 0.198699,-0.331539 0.397399,-0.663077 0.5961,-0.994619 0.176621,-0.2947 0.353244,-0.589403 0.529865,-0.884103 0.04416,-0.07368 0.08831,-0.147352 0.132467,-0.221027 0.02208,-0.03684 0.03365,-0.08254 0.06623,-0.110511 0.07289,-0.06254 0.161984,-0.103199 0.242981,-0.154794 0.18407,-0.140031 0.383376,-0.262019 0.552192,-0.4201 0.0627,-0.05871 0.06977,-0.162318 0.132467,-0.221027 0.168818,-0.15808 0.393097,-0.252235 0.552192,-0.420096 1.376608,-1.452465 -0.689105,0.376514 0.574147,-0.70736 0.103074,-0.08843 0.221195,-0.161878 0.30921,-0.265306 0.08351,-0.09812 0.100922,-0.247642 0.198701,-0.33154 0.117521,-0.100829 0.29424,-0.108348 0.419726,-0.199072 0.286999,-0.207492 0.473765,-0.531133 0.750893,-0.751637 0.150296,-0.119586 0.340194,-0.184519 0.485957,-0.309586 0.166198,-0.142599 0.291042,-0.327388 0.441681,-0.486332 0.121808,-0.128525 0.266281,-0.236396 0.375446,-0.375818 0.1059,-0.135266 0.12572,-0.341405 0.264934,-0.442054 0.147655,-0.106758 0.358226,-0.07274 0.530238,-0.13284 0.146181,-0.05108 0.284714,-0.123246 0.419726,-0.199071 0.167461,-0.09405 0.323972,-0.206393 0.485959,-0.309587 0.08099,-0.05159 0.166555,-0.09664 0.24298,-0.154793 0.516253,-0.392756 0.108008,-0.188969 0.795171,-0.574891 0.270022,-0.151653 0.566266,-0.252272 0.839451,-0.398146 0.25171,-0.134404 0.471262,-0.342164 0.728941,-0.464378 0.16463,-0.07808 0.36153,-0.06401 0.530239,-0.13284 0.08892,-0.03628 0.161983,-0.103198 0.242979,-0.154793 0.242981,-0.154793 0.474802,-0.328678 0.728938,-0.464379 0.05358,-0.02861 0.121872,-0.01826 0.176747,-0.04428 0.08677,-0.04115 0.15621,-0.11364 0.24298,-0.154792 0.05488,-0.02603 0.121872,-0.01826 0.176747,-0.04428 0.173535,-0.08231 0.312424,-0.227279 0.485958,-0.309587 0.05487,-0.02602 0.130652,-0.0047 0.176747,-0.04428 0.06519,-0.05594 0.08831,-0.147351 0.132466,-0.221026 0.08099,-0.05159 0.161992,-0.103193 0.24298,-0.154792 0.08099,-0.05159 0.156211,-0.113641 0.24298,-0.154793 0.109753,-0.05206 0.243738,-0.03651 0.353492,-0.08856 0.08099,-0.05159 0.161983,-0.103198 0.24298,-0.154793 0.02208,-0.03684 0.03001,-0.08744 0.06623,-0.110514 0.05122,-0.03263 0.11619,-0.04891 0.176748,-0.04428 0.04282,0.0033 0.147349,0.08831 0.11051,0.06623 -0.746557,-0.44743 0.631451,0.35416 -0.729309,-0.286885 -0.23311,-0.109817 -0.425542,-0.297521 -0.66308,-0.397401 -0.07581,-0.03187 -0.433003,0.154398 -0.530238,0.132841 -0.08386,-0.01859 -0.138843,-0.107497 -0.221027,-0.132467 -0.18377,-0.05583 -0.390748,0.01192 -0.574519,-0.04391 -0.08218,-0.02497 -0.13717,-0.113874 -0.221027,-0.132467 -0.0593,-0.01314 -0.11982,0.0231 -0.176745,0.04428 -0.20126,0.07487 -0.384787,0.207297 -0.596473,0.243351 -0.189337,0.03225 -0.384492,-0.07181 -0.574518,-0.04391 -0.420642,0.06177 -0.830817,0.185106 -1.237224,0.309959 -0.148021,0.04547 -0.266285,0.178259 -0.419727,0.199072 -0.319252,0.04331 -0.384174,-0.185512 -0.685031,-0.11014 -0.09315,0.02333 -0.14983,0.131453 -0.242981,0.154792 -0.150205,0.03763 -0.310563,0.0015 -0.464005,0.02233 -0.120365,0.01633 -0.23216,0.08272 -0.353493,0.08856 -0.191843,0.0092 -0.382495,-0.03992 -0.574519,-0.04391 -0.154812,-0.0032 -0.309158,0.02225 -0.464004,0.02232 -0.349023,1.76e-4 -0.269186,-0.08499 -0.640753,0.06661 -0.08891,0.03627 -0.156211,0.113641 -0.242979,0.15479 -0.05488,0.02603 -0.130652,0.0047 -0.176747,0.04428 -0.06519,0.05594 -0.0567,0.180566 -0.132467,0.221027 -0.160734,0.08582 -0.359464,0.06931 -0.530238,0.132839 -0.176098,0.06551 -0.674909,0.454511 -0.795172,0.574893 -0.187722,0.187909 0.110512,0.06623 -0.198699,0.331539 -0.45498,0.390372 0.130122,-0.467746 -0.309214,0.265304 -0.04416,0.07368 -0.04658,0.220982 -0.132467,0.221027 -0.218987,1.09e-4 -0.40008,-0.231151 -0.618798,-0.220652 -0.216012,0.01039 -0.54382,0.656757 -0.64038,0.81787 -0.154544,0.257863 -0.309088,0.515728 -0.463632,0.773591 -0.04415,0.07367 -0.107488,0.138847 -0.132467,0.221027 -0.02793,0.09188 0.0132,0.197893 -0.02195,0.287261 -0.06289,0.159862 -0.176621,0.2947 -0.264932,0.442052 -0.02208,0.03684 -0.05376,0.06942 -0.06623,0.110511 -0.367104,0.186565 -0.0023,0.387007 -0.04391,0.57452 -0.0186,0.08386 -0.08831,0.147349 -0.132466,0.221025 -0.02208,0.03684 -0.06296,0.06769 -0.06623,0.110514 -0.0046,0.06056 0.05743,0.117449 0.04428,0.176746 -0.0186,0.08386 -0.125918,0.135384 -0.132465,0.221025 -0.0065,0.08565 0.200154,0.04914 0.221027,0.132467 0.02214,0.08837 -0.22084,0.243168 -0.198701,0.331541 0.02334,0.09316 0.131457,0.14982 0.154793,0.242977 0.01067,0.04258 -0.237232,0.350896 -0.264934,0.442055 -0.321329,1.05768 0.07232,-0.137977 -0.110138,0.68503 -0.0093,0.04192 -0.05179,0.07007 -0.06623,0.110513 -0.05947,0.166792 -0.09495,0.341496 -0.15442,0.508286 -0.02885,0.08091 -0.125928,0.135378 -0.132467,0.221027 -0.0046,0.06055 0.04891,0.11619 0.04428,0.176745 -0.0065,0.08564 -0.125919,0.135384 -0.132466,0.221026 -0.0046,0.06056 0.04891,0.116189 0.04428,0.176747 -0.0033,0.04282 -0.05693,0.06859 -0.06623,0.110514 -0.02078,0.09375 -0.0067,0.192442 -0.02195,0.287258 -0.02156,0.13409 -0.09471,0.262122 -0.08819,0.397775 0.0021,0.04289 0.100075,0.02457 0.110513,0.06623 0.01044,0.04166 -0.04415,0.07367 -0.06623,0.110513 -0.04415,0.07367 -0.125919,0.135384 -0.132465,0.221025 -0.0033,0.04282 0.100074,0.02457 0.110511,0.06623 0.01044,0.04166 -0.04416,0.07368 -0.06623,0.110514 -0.04415,0.07367 -0.08831,0.147352 -0.132467,0.221027 -0.08831,0.147349 -0.176622,0.294701 -0.264933,0.442052 -0.04416,0.07368 -0.08831,0.147349 -0.132466,0.221025 -0.02208,0.03684 -0.05693,0.06859 -0.06623,0.110513 -0.02078,0.09375 -0.0012,0.193501 -0.02195,0.287261 -0.01859,0.08385 -0.113872,0.137168 -0.132466,0.221024 -0.02078,0.09375 0.006,0.195376 -0.02195,0.287261 -0.02498,0.08218 -0.125918,0.135384 -0.132466,0.221026 -0.0033,0.04283 0.113785,0.02341 0.110513,0.06623 -0.0065,0.08565 -0.107487,0.138847 -0.132467,0.221027 -0.02792,0.09188 -0.01463,0.19151 -0.02195,0.287258 -0.0073,0.09575 -0.02657,0.191338 -0.02196,0.28726 0.0029,0.06067 0.02504,0.119143 0.04428,0.176747 0.106231,0.31816 0.221276,0.63331 0.331914,0.949965 z"
         id="path2-8" />
    </g>
  </g>
</svg>
